<mxfile host="app.diagrams.net" modified="2022-03-16T17:14:13.595Z" agent="5.0 (Windows NT 10.0; Win64; x64) AppleWebKit/537.36 (KHTML, like Gecko) Chrome/99.0.4844.51 Safari/537.36" etag="iXxhKzcAgOHFqdZGkMs5" version="17.1.3" type="github">
  <diagram id="C5RBs43oDa-KdzZeNtuy" name="Page-1">
    <mxGraphModel dx="1784" dy="1055" grid="1" gridSize="10" guides="1" tooltips="1" connect="1" arrows="1" fold="1" page="1" pageScale="1" pageWidth="827" pageHeight="1169" math="0" shadow="0">
      <root>
        <mxCell id="WIyWlLk6GJQsqaUBKTNV-0" />
        <mxCell id="WIyWlLk6GJQsqaUBKTNV-1" parent="WIyWlLk6GJQsqaUBKTNV-0" />
        <mxCell id="WIyWlLk6GJQsqaUBKTNV-2" value="" style="rounded=0;html=1;jettySize=auto;orthogonalLoop=1;fontSize=11;endArrow=block;endFill=0;endSize=8;strokeWidth=1;shadow=0;labelBackgroundColor=none;edgeStyle=orthogonalEdgeStyle;entryX=0.5;entryY=0;entryDx=0;entryDy=0;" parent="WIyWlLk6GJQsqaUBKTNV-1" source="WIyWlLk6GJQsqaUBKTNV-3" target="aBaJkPqII_9m-7BZP8Xz-0" edge="1">
          <mxGeometry relative="1" as="geometry">
            <mxPoint x="220" y="142" as="targetPoint" />
          </mxGeometry>
        </mxCell>
        <mxCell id="WIyWlLk6GJQsqaUBKTNV-3" value="import algodex from &#39;@algodex/algodex-sdk`" style="rounded=1;whiteSpace=wrap;html=1;fontSize=12;glass=0;strokeWidth=1;shadow=0;" parent="WIyWlLk6GJQsqaUBKTNV-1" vertex="1">
          <mxGeometry x="125" y="30" width="190" height="40" as="geometry" />
        </mxCell>
        <mxCell id="aBaJkPqII_9m-7BZP8Xz-0" value="index" style="swimlane;fontStyle=0;childLayout=stackLayout;horizontal=1;startSize=30;horizontalStack=0;resizeParent=1;resizeParentMax=0;resizeLast=0;collapsible=1;marginBottom=0;" vertex="1" parent="WIyWlLk6GJQsqaUBKTNV-1">
          <mxGeometry x="150" y="240" width="140" height="120" as="geometry" />
        </mxCell>
        <mxCell id="aBaJkPqII_9m-7BZP8Xz-1" value="fn1" style="text;strokeColor=none;fillColor=none;align=left;verticalAlign=middle;spacingLeft=4;spacingRight=4;overflow=hidden;points=[[0,0.5],[1,0.5]];portConstraint=eastwest;rotatable=0;" vertex="1" parent="aBaJkPqII_9m-7BZP8Xz-0">
          <mxGeometry y="30" width="140" height="30" as="geometry" />
        </mxCell>
        <mxCell id="aBaJkPqII_9m-7BZP8Xz-2" value="fn2" style="text;strokeColor=none;fillColor=none;align=left;verticalAlign=middle;spacingLeft=4;spacingRight=4;overflow=hidden;points=[[0,0.5],[1,0.5]];portConstraint=eastwest;rotatable=0;" vertex="1" parent="aBaJkPqII_9m-7BZP8Xz-0">
          <mxGeometry y="60" width="140" height="30" as="geometry" />
        </mxCell>
        <mxCell id="aBaJkPqII_9m-7BZP8Xz-3" value="fn3" style="text;strokeColor=none;fillColor=none;align=left;verticalAlign=middle;spacingLeft=4;spacingRight=4;overflow=hidden;points=[[0,0.5],[1,0.5]];portConstraint=eastwest;rotatable=0;" vertex="1" parent="aBaJkPqII_9m-7BZP8Xz-0">
          <mxGeometry y="90" width="140" height="30" as="geometry" />
        </mxCell>
        <mxCell id="aBaJkPqII_9m-7BZP8Xz-4" value="algodex_api" style="swimlane;fontStyle=0;childLayout=stackLayout;horizontal=1;startSize=30;horizontalStack=0;resizeParent=1;resizeParentMax=0;resizeLast=0;collapsible=1;marginBottom=0;" vertex="1" parent="WIyWlLk6GJQsqaUBKTNV-1">
          <mxGeometry x="344" y="240" width="140" height="120" as="geometry" />
        </mxCell>
        <mxCell id="aBaJkPqII_9m-7BZP8Xz-5" value="fn1" style="text;strokeColor=none;fillColor=none;align=left;verticalAlign=middle;spacingLeft=4;spacingRight=4;overflow=hidden;points=[[0,0.5],[1,0.5]];portConstraint=eastwest;rotatable=0;" vertex="1" parent="aBaJkPqII_9m-7BZP8Xz-4">
          <mxGeometry y="30" width="140" height="30" as="geometry" />
        </mxCell>
        <mxCell id="aBaJkPqII_9m-7BZP8Xz-6" value="fn2" style="text;strokeColor=none;fillColor=none;align=left;verticalAlign=middle;spacingLeft=4;spacingRight=4;overflow=hidden;points=[[0,0.5],[1,0.5]];portConstraint=eastwest;rotatable=0;" vertex="1" parent="aBaJkPqII_9m-7BZP8Xz-4">
          <mxGeometry y="60" width="140" height="30" as="geometry" />
        </mxCell>
        <mxCell id="aBaJkPqII_9m-7BZP8Xz-7" value="fn3" style="text;strokeColor=none;fillColor=none;align=left;verticalAlign=middle;spacingLeft=4;spacingRight=4;overflow=hidden;points=[[0,0.5],[1,0.5]];portConstraint=eastwest;rotatable=0;" vertex="1" parent="aBaJkPqII_9m-7BZP8Xz-4">
          <mxGeometry y="90" width="140" height="30" as="geometry" />
        </mxCell>
        <mxCell id="aBaJkPqII_9m-7BZP8Xz-8" value="algodex_internal" style="swimlane;fontStyle=0;childLayout=stackLayout;horizontal=1;startSize=30;horizontalStack=0;resizeParent=1;resizeParentMax=0;resizeLast=0;collapsible=1;marginBottom=0;" vertex="1" parent="WIyWlLk6GJQsqaUBKTNV-1">
          <mxGeometry x="540" y="240" width="140" height="120" as="geometry" />
        </mxCell>
        <mxCell id="aBaJkPqII_9m-7BZP8Xz-9" value="fn1" style="text;strokeColor=none;fillColor=none;align=left;verticalAlign=middle;spacingLeft=4;spacingRight=4;overflow=hidden;points=[[0,0.5],[1,0.5]];portConstraint=eastwest;rotatable=0;" vertex="1" parent="aBaJkPqII_9m-7BZP8Xz-8">
          <mxGeometry y="30" width="140" height="30" as="geometry" />
        </mxCell>
        <mxCell id="aBaJkPqII_9m-7BZP8Xz-10" value="fn2" style="text;strokeColor=none;fillColor=none;align=left;verticalAlign=middle;spacingLeft=4;spacingRight=4;overflow=hidden;points=[[0,0.5],[1,0.5]];portConstraint=eastwest;rotatable=0;" vertex="1" parent="aBaJkPqII_9m-7BZP8Xz-8">
          <mxGeometry y="60" width="140" height="30" as="geometry" />
        </mxCell>
        <mxCell id="aBaJkPqII_9m-7BZP8Xz-11" value="fn3" style="text;strokeColor=none;fillColor=none;align=left;verticalAlign=middle;spacingLeft=4;spacingRight=4;overflow=hidden;points=[[0,0.5],[1,0.5]];portConstraint=eastwest;rotatable=0;" vertex="1" parent="aBaJkPqII_9m-7BZP8Xz-8">
          <mxGeometry y="90" width="140" height="30" as="geometry" />
        </mxCell>
        <mxCell id="aBaJkPqII_9m-7BZP8Xz-12" style="edgeStyle=orthogonalEdgeStyle;rounded=0;orthogonalLoop=1;jettySize=auto;html=1;entryX=0;entryY=0.5;entryDx=0;entryDy=0;startArrow=classic;startFill=1;" edge="1" parent="WIyWlLk6GJQsqaUBKTNV-1" source="aBaJkPqII_9m-7BZP8Xz-1" target="aBaJkPqII_9m-7BZP8Xz-5">
          <mxGeometry relative="1" as="geometry" />
        </mxCell>
        <mxCell id="aBaJkPqII_9m-7BZP8Xz-13" style="edgeStyle=orthogonalEdgeStyle;rounded=0;orthogonalLoop=1;jettySize=auto;html=1;entryX=0;entryY=0.5;entryDx=0;entryDy=0;startArrow=classic;startFill=1;" edge="1" parent="WIyWlLk6GJQsqaUBKTNV-1" source="aBaJkPqII_9m-7BZP8Xz-2" target="aBaJkPqII_9m-7BZP8Xz-6">
          <mxGeometry relative="1" as="geometry" />
        </mxCell>
        <mxCell id="aBaJkPqII_9m-7BZP8Xz-14" style="edgeStyle=orthogonalEdgeStyle;rounded=0;orthogonalLoop=1;jettySize=auto;html=1;entryX=0;entryY=0.5;entryDx=0;entryDy=0;startArrow=classic;startFill=1;" edge="1" parent="WIyWlLk6GJQsqaUBKTNV-1" source="aBaJkPqII_9m-7BZP8Xz-3" target="aBaJkPqII_9m-7BZP8Xz-7">
          <mxGeometry relative="1" as="geometry" />
        </mxCell>
        <mxCell id="aBaJkPqII_9m-7BZP8Xz-15" style="edgeStyle=orthogonalEdgeStyle;rounded=0;orthogonalLoop=1;jettySize=auto;html=1;entryX=0;entryY=0.5;entryDx=0;entryDy=0;startArrow=classic;startFill=1;" edge="1" parent="WIyWlLk6GJQsqaUBKTNV-1" source="aBaJkPqII_9m-7BZP8Xz-5" target="aBaJkPqII_9m-7BZP8Xz-9">
          <mxGeometry relative="1" as="geometry" />
        </mxCell>
        <mxCell id="aBaJkPqII_9m-7BZP8Xz-16" style="edgeStyle=orthogonalEdgeStyle;rounded=0;orthogonalLoop=1;jettySize=auto;html=1;startArrow=classic;startFill=1;" edge="1" parent="WIyWlLk6GJQsqaUBKTNV-1" source="aBaJkPqII_9m-7BZP8Xz-6" target="aBaJkPqII_9m-7BZP8Xz-10">
          <mxGeometry relative="1" as="geometry" />
        </mxCell>
        <mxCell id="aBaJkPqII_9m-7BZP8Xz-17" style="edgeStyle=orthogonalEdgeStyle;rounded=0;orthogonalLoop=1;jettySize=auto;html=1;startArrow=classic;startFill=1;" edge="1" parent="WIyWlLk6GJQsqaUBKTNV-1" source="aBaJkPqII_9m-7BZP8Xz-7" target="aBaJkPqII_9m-7BZP8Xz-11">
          <mxGeometry relative="1" as="geometry" />
        </mxCell>
        <mxCell id="aBaJkPqII_9m-7BZP8Xz-19" value="&lt;h1&gt;v1.X.X SDK&lt;/h1&gt;&lt;p&gt;Three namespaces that represent one interface.&lt;/p&gt;" style="text;html=1;strokeColor=none;fillColor=none;spacing=5;spacingTop=-20;whiteSpace=wrap;overflow=hidden;rounded=0;" vertex="1" parent="WIyWlLk6GJQsqaUBKTNV-1">
          <mxGeometry x="390" y="50" width="190" height="120" as="geometry" />
        </mxCell>
        <mxCell id="aBaJkPqII_9m-7BZP8Xz-20" value="" style="rounded=0;html=1;jettySize=auto;orthogonalLoop=1;fontSize=11;endArrow=block;endFill=0;endSize=8;strokeWidth=1;shadow=0;labelBackgroundColor=none;edgeStyle=orthogonalEdgeStyle;entryX=0.5;entryY=0;entryDx=0;entryDy=0;" edge="1" parent="WIyWlLk6GJQsqaUBKTNV-1" source="aBaJkPqII_9m-7BZP8Xz-21" target="aBaJkPqII_9m-7BZP8Xz-26">
          <mxGeometry relative="1" as="geometry">
            <mxPoint x="205" y="670" as="targetPoint" />
          </mxGeometry>
        </mxCell>
        <mxCell id="aBaJkPqII_9m-7BZP8Xz-41" style="edgeStyle=orthogonalEdgeStyle;rounded=0;orthogonalLoop=1;jettySize=auto;html=1;startArrow=classic;startFill=1;" edge="1" parent="WIyWlLk6GJQsqaUBKTNV-1" source="aBaJkPqII_9m-7BZP8Xz-21" target="aBaJkPqII_9m-7BZP8Xz-50">
          <mxGeometry relative="1" as="geometry">
            <Array as="points">
              <mxPoint x="590" y="480" />
            </Array>
          </mxGeometry>
        </mxCell>
        <mxCell id="aBaJkPqII_9m-7BZP8Xz-46" value="Allowed Path" style="edgeLabel;html=1;align=center;verticalAlign=middle;resizable=0;points=[];" vertex="1" connectable="0" parent="aBaJkPqII_9m-7BZP8Xz-41">
          <mxGeometry x="-0.3574" y="2" relative="1" as="geometry">
            <mxPoint as="offset" />
          </mxGeometry>
        </mxCell>
        <mxCell id="aBaJkPqII_9m-7BZP8Xz-21" value="import AlgodexAPI from &#39;@algodex/algodex-sdk`" style="rounded=1;whiteSpace=wrap;html=1;fontSize=12;glass=0;strokeWidth=1;shadow=0;" vertex="1" parent="WIyWlLk6GJQsqaUBKTNV-1">
          <mxGeometry x="75" y="460" width="190" height="40" as="geometry" />
        </mxCell>
        <mxCell id="aBaJkPqII_9m-7BZP8Xz-26" value="./" style="swimlane;fontStyle=0;childLayout=stackLayout;horizontal=1;startSize=30;horizontalStack=0;resizeParent=1;resizeParentMax=0;resizeLast=0;collapsible=1;marginBottom=0;" vertex="1" parent="WIyWlLk6GJQsqaUBKTNV-1">
          <mxGeometry x="100" y="680" width="140" height="120" as="geometry" />
        </mxCell>
        <mxCell id="aBaJkPqII_9m-7BZP8Xz-27" value="deprecatedFn1" style="text;strokeColor=none;fillColor=none;align=left;verticalAlign=middle;spacingLeft=4;spacingRight=4;overflow=hidden;points=[[0,0.5],[1,0.5]];portConstraint=eastwest;rotatable=0;" vertex="1" parent="aBaJkPqII_9m-7BZP8Xz-26">
          <mxGeometry y="30" width="140" height="30" as="geometry" />
        </mxCell>
        <mxCell id="aBaJkPqII_9m-7BZP8Xz-28" value="deprecatedFn2" style="text;strokeColor=none;fillColor=none;align=left;verticalAlign=middle;spacingLeft=4;spacingRight=4;overflow=hidden;points=[[0,0.5],[1,0.5]];portConstraint=eastwest;rotatable=0;" vertex="1" parent="aBaJkPqII_9m-7BZP8Xz-26">
          <mxGeometry y="60" width="140" height="30" as="geometry" />
        </mxCell>
        <mxCell id="aBaJkPqII_9m-7BZP8Xz-29" value="new API()" style="text;strokeColor=none;fillColor=none;align=left;verticalAlign=middle;spacingLeft=4;spacingRight=4;overflow=hidden;points=[[0,0.5],[1,0.5]];portConstraint=eastwest;rotatable=0;" vertex="1" parent="aBaJkPqII_9m-7BZP8Xz-26">
          <mxGeometry y="90" width="140" height="30" as="geometry" />
        </mxCell>
        <mxCell id="aBaJkPqII_9m-7BZP8Xz-30" value="./lib/functions/index.js" style="swimlane;fontStyle=0;childLayout=stackLayout;horizontal=1;startSize=30;horizontalStack=0;resizeParent=1;resizeParentMax=0;resizeLast=0;collapsible=1;marginBottom=0;" vertex="1" parent="WIyWlLk6GJQsqaUBKTNV-1">
          <mxGeometry x="410" y="680" width="140" height="120" as="geometry" />
        </mxCell>
        <mxCell id="aBaJkPqII_9m-7BZP8Xz-31" value="fn1" style="text;strokeColor=none;fillColor=none;align=left;verticalAlign=middle;spacingLeft=4;spacingRight=4;overflow=hidden;points=[[0,0.5],[1,0.5]];portConstraint=eastwest;rotatable=0;" vertex="1" parent="aBaJkPqII_9m-7BZP8Xz-30">
          <mxGeometry y="30" width="140" height="30" as="geometry" />
        </mxCell>
        <mxCell id="aBaJkPqII_9m-7BZP8Xz-32" value="fn2" style="text;strokeColor=none;fillColor=none;align=left;verticalAlign=middle;spacingLeft=4;spacingRight=4;overflow=hidden;points=[[0,0.5],[1,0.5]];portConstraint=eastwest;rotatable=0;" vertex="1" parent="aBaJkPqII_9m-7BZP8Xz-30">
          <mxGeometry y="60" width="140" height="30" as="geometry" />
        </mxCell>
        <mxCell id="aBaJkPqII_9m-7BZP8Xz-33" value="fn3" style="text;strokeColor=none;fillColor=none;align=left;verticalAlign=middle;spacingLeft=4;spacingRight=4;overflow=hidden;points=[[0,0.5],[1,0.5]];portConstraint=eastwest;rotatable=0;" vertex="1" parent="aBaJkPqII_9m-7BZP8Xz-30">
          <mxGeometry y="90" width="140" height="30" as="geometry" />
        </mxCell>
        <mxCell id="aBaJkPqII_9m-7BZP8Xz-37" style="edgeStyle=orthogonalEdgeStyle;rounded=0;orthogonalLoop=1;jettySize=auto;html=1;entryX=0;entryY=0.5;entryDx=0;entryDy=0;startArrow=classic;startFill=1;dashed=1;" edge="1" parent="WIyWlLk6GJQsqaUBKTNV-1" source="aBaJkPqII_9m-7BZP8Xz-27" target="aBaJkPqII_9m-7BZP8Xz-31">
          <mxGeometry relative="1" as="geometry" />
        </mxCell>
        <mxCell id="aBaJkPqII_9m-7BZP8Xz-42" value="Deprecated Path" style="edgeLabel;html=1;align=center;verticalAlign=middle;resizable=0;points=[];" vertex="1" connectable="0" parent="aBaJkPqII_9m-7BZP8Xz-37">
          <mxGeometry x="-0.3362" y="-4" relative="1" as="geometry">
            <mxPoint x="36" as="offset" />
          </mxGeometry>
        </mxCell>
        <mxCell id="aBaJkPqII_9m-7BZP8Xz-38" style="edgeStyle=orthogonalEdgeStyle;rounded=0;orthogonalLoop=1;jettySize=auto;html=1;startArrow=classic;startFill=1;dashed=1;" edge="1" parent="WIyWlLk6GJQsqaUBKTNV-1" source="aBaJkPqII_9m-7BZP8Xz-28" target="aBaJkPqII_9m-7BZP8Xz-32">
          <mxGeometry relative="1" as="geometry" />
        </mxCell>
        <mxCell id="aBaJkPqII_9m-7BZP8Xz-43" value="&lt;span style=&quot;color: rgba(0 , 0 , 0 , 0) ; font-family: monospace ; font-size: 0px ; background-color: rgb(248 , 249 , 250)&quot;&gt;%3CmxGraphModel%3E%3Croot%3E%3CmxCell%20id%3D%220%22%2F%3E%3CmxCell%20id%3D%221%22%20parent%3D%220%22%2F%3E%3CmxCell%20id%3D%222%22%20value%3D%22Deprecated%20Path%22%20style%3D%22edgeLabel%3Bhtml%3D1%3Balign%3Dcenter%3BverticalAlign%3Dmiddle%3Bresizable%3D0%3Bpoints%3D%5B%5D%3B%22%20vertex%3D%221%22%20connectable%3D%220%22%20parent%3D%221%22%3E%3CmxGeometry%20x%3D%22368%22%20y%3D%22719%22%20as%3D%22geometry%22%2F%3E%3C%2FmxCell%3E%3C%2Froot%3E%3C%2FmxGraphModel%3&lt;/span&gt;" style="edgeLabel;html=1;align=center;verticalAlign=middle;resizable=0;points=[];" vertex="1" connectable="0" parent="aBaJkPqII_9m-7BZP8Xz-38">
          <mxGeometry x="-0.4043" y="2" relative="1" as="geometry">
            <mxPoint as="offset" />
          </mxGeometry>
        </mxCell>
        <mxCell id="aBaJkPqII_9m-7BZP8Xz-44" value="Deprecated Path" style="edgeLabel;html=1;align=center;verticalAlign=middle;resizable=0;points=[];" vertex="1" connectable="0" parent="aBaJkPqII_9m-7BZP8Xz-38">
          <mxGeometry x="-0.2511" y="-2" relative="1" as="geometry">
            <mxPoint x="1" as="offset" />
          </mxGeometry>
        </mxCell>
        <mxCell id="aBaJkPqII_9m-7BZP8Xz-39" style="edgeStyle=orthogonalEdgeStyle;rounded=0;orthogonalLoop=1;jettySize=auto;html=1;startArrow=classic;startFill=1;dashed=1;" edge="1" parent="WIyWlLk6GJQsqaUBKTNV-1" source="aBaJkPqII_9m-7BZP8Xz-29" target="aBaJkPqII_9m-7BZP8Xz-33">
          <mxGeometry relative="1" as="geometry" />
        </mxCell>
        <mxCell id="aBaJkPqII_9m-7BZP8Xz-45" value="Deprecated Path" style="edgeLabel;html=1;align=center;verticalAlign=middle;resizable=0;points=[];" vertex="1" connectable="0" parent="aBaJkPqII_9m-7BZP8Xz-39">
          <mxGeometry x="-0.3872" relative="1" as="geometry">
            <mxPoint x="44" as="offset" />
          </mxGeometry>
        </mxCell>
        <mxCell id="aBaJkPqII_9m-7BZP8Xz-40" value="&lt;h1&gt;v2.X.X SDK&lt;/h1&gt;&lt;p&gt;Two namespaces with a deprecated export for previous consumers. One for the API constructor and one for pureish functions&lt;br&gt;&lt;br&gt;Default Exports are deprecated in favor of &quot;Named Exports&quot; and direct imports&lt;/p&gt;" style="text;html=1;strokeColor=none;fillColor=none;spacing=5;spacingTop=-20;whiteSpace=wrap;overflow=hidden;rounded=0;" vertex="1" parent="WIyWlLk6GJQsqaUBKTNV-1">
          <mxGeometry x="300" y="500" width="220" height="170" as="geometry" />
        </mxCell>
        <mxCell id="aBaJkPqII_9m-7BZP8Xz-50" value="./lib/functions/base.js" style="swimlane;fontStyle=0;childLayout=stackLayout;horizontal=1;startSize=30;horizontalStack=0;resizeParent=1;resizeParentMax=0;resizeLast=0;collapsible=1;marginBottom=0;" vertex="1" parent="WIyWlLk6GJQsqaUBKTNV-1">
          <mxGeometry x="520" y="870" width="140" height="120" as="geometry" />
        </mxCell>
        <mxCell id="aBaJkPqII_9m-7BZP8Xz-51" value="fn1" style="text;strokeColor=none;fillColor=none;align=left;verticalAlign=middle;spacingLeft=4;spacingRight=4;overflow=hidden;points=[[0,0.5],[1,0.5]];portConstraint=eastwest;rotatable=0;" vertex="1" parent="aBaJkPqII_9m-7BZP8Xz-50">
          <mxGeometry y="30" width="140" height="30" as="geometry" />
        </mxCell>
        <mxCell id="aBaJkPqII_9m-7BZP8Xz-52" value="fn2" style="text;strokeColor=none;fillColor=none;align=left;verticalAlign=middle;spacingLeft=4;spacingRight=4;overflow=hidden;points=[[0,0.5],[1,0.5]];portConstraint=eastwest;rotatable=0;" vertex="1" parent="aBaJkPqII_9m-7BZP8Xz-50">
          <mxGeometry y="60" width="140" height="30" as="geometry" />
        </mxCell>
        <mxCell id="aBaJkPqII_9m-7BZP8Xz-53" value="default " style="text;strokeColor=none;fillColor=none;align=left;verticalAlign=middle;spacingLeft=4;spacingRight=4;overflow=hidden;points=[[0,0.5],[1,0.5]];portConstraint=eastwest;rotatable=0;" vertex="1" parent="aBaJkPqII_9m-7BZP8Xz-50">
          <mxGeometry y="90" width="140" height="30" as="geometry" />
        </mxCell>
        <mxCell id="aBaJkPqII_9m-7BZP8Xz-54" style="edgeStyle=orthogonalEdgeStyle;rounded=0;orthogonalLoop=1;jettySize=auto;html=1;entryX=1;entryY=0.5;entryDx=0;entryDy=0;startArrow=classic;startFill=1;dashed=1;" edge="1" parent="WIyWlLk6GJQsqaUBKTNV-1" source="aBaJkPqII_9m-7BZP8Xz-51" target="aBaJkPqII_9m-7BZP8Xz-31">
          <mxGeometry relative="1" as="geometry" />
        </mxCell>
        <mxCell id="aBaJkPqII_9m-7BZP8Xz-56" value="Deprecated Path" style="edgeLabel;html=1;align=center;verticalAlign=middle;resizable=0;points=[];" vertex="1" connectable="0" parent="aBaJkPqII_9m-7BZP8Xz-54">
          <mxGeometry x="0.151" y="-1" relative="1" as="geometry">
            <mxPoint as="offset" />
          </mxGeometry>
        </mxCell>
        <mxCell id="aBaJkPqII_9m-7BZP8Xz-57" value="&lt;h1&gt;Functions&lt;/h1&gt;&lt;p&gt;Any index.js files should be deprecated or warn the users to use a direct import of a named export.&lt;br&gt;&lt;br&gt;Default exports of namespaces are deprecated. Export named functions and deprecate&amp;nbsp;&lt;/p&gt;" style="text;html=1;strokeColor=none;fillColor=none;spacing=5;spacingTop=-20;whiteSpace=wrap;overflow=hidden;rounded=0;" vertex="1" parent="WIyWlLk6GJQsqaUBKTNV-1">
          <mxGeometry x="280" y="840" width="220" height="170" as="geometry" />
        </mxCell>
        <mxCell id="aBaJkPqII_9m-7BZP8Xz-58" style="edgeStyle=orthogonalEdgeStyle;rounded=0;orthogonalLoop=1;jettySize=auto;html=1;entryX=0.5;entryY=0;entryDx=0;entryDy=0;startArrow=classic;startFill=1;" edge="1" parent="WIyWlLk6GJQsqaUBKTNV-1" source="aBaJkPqII_9m-7BZP8Xz-29" target="aBaJkPqII_9m-7BZP8Xz-50">
          <mxGeometry relative="1" as="geometry">
            <Array as="points">
              <mxPoint x="170" y="840" />
              <mxPoint x="590" y="840" />
            </Array>
          </mxGeometry>
        </mxCell>
        <mxCell id="aBaJkPqII_9m-7BZP8Xz-59" value="Allowed Path" style="edgeLabel;html=1;align=center;verticalAlign=middle;resizable=0;points=[];" vertex="1" connectable="0" parent="aBaJkPqII_9m-7BZP8Xz-58">
          <mxGeometry x="0.1224" y="3" relative="1" as="geometry">
            <mxPoint as="offset" />
          </mxGeometry>
        </mxCell>
        <mxCell id="aBaJkPqII_9m-7BZP8Xz-60" style="edgeStyle=orthogonalEdgeStyle;rounded=0;orthogonalLoop=1;jettySize=auto;html=1;startArrow=classic;startFill=1;entryX=0.5;entryY=1;entryDx=0;entryDy=0;dashed=1;" edge="1" parent="WIyWlLk6GJQsqaUBKTNV-1" source="aBaJkPqII_9m-7BZP8Xz-53" target="aBaJkPqII_9m-7BZP8Xz-61">
          <mxGeometry relative="1" as="geometry">
            <mxPoint x="750" y="870" as="targetPoint" />
          </mxGeometry>
        </mxCell>
        <mxCell id="aBaJkPqII_9m-7BZP8Xz-61" value="Always Deprecated&lt;br&gt;in namespace" style="ellipse;whiteSpace=wrap;html=1;" vertex="1" parent="WIyWlLk6GJQsqaUBKTNV-1">
          <mxGeometry x="690" y="770" width="120" height="80" as="geometry" />
        </mxCell>
      </root>
    </mxGraphModel>
  </diagram>
</mxfile>
